<?xml version="1.0" encoding="utf-8"?>
<!-- Generator: Adobe Illustrator 18.0.0, SVG Export Plug-In . SVG Version: 6.00 Build 0)  -->
<!DOCTYPE svg PUBLIC "-//W3C//DTD SVG 1.1//EN" "http://www.w3.org/Graphics/SVG/1.1/DTD/svg11.dtd">
<svg version="1.1" id="Layer_1" xmlns="http://www.w3.org/2000/svg" xmlns:xlink="http://www.w3.org/1999/xlink" x="0px" y="0px"
	 viewBox="0 0 300 300" enable-background="new 0 0 300 300" xml:space="preserve">
<g>
	<path fill="#FFFFFF" stroke="#FFFFFF" stroke-width="10" stroke-miterlimit="10" d="M230,3.8L230,3.8H71.5
		c-10.9,0-19.7,8.9-19.7,19.7V43H40.2C18.6,43,1.1,62.5,1.1,86.5v85.7c0,24,17.6,43.5,39.1,43.5h9.9h9v-9v-30.2
		c0-2.5,0.8-4.9,2.1-6.8v108c0,4.7,1.9,9.3,5.2,12.6c3.3,3.3,7.8,5.2,12.5,5.2h98.8c4.6,0,9.2-1.9,12.5-5.1l0,0l0,0l44.8-44.8
		c3.4-3.4,5.2-7.8,5.2-12.6v-63.2c1.3,2,2,4.3,2,6.8v30.2v9h9h9.9c21.6,0,39.1-19.5,39.1-43.5V86.5c0-24-17.6-43.5-39.1-43.5h-11.6
		V23.5C249.6,12.7,240.8,3.9,230,3.8L230,3.8L230,3.8z"/>
	<g>
		<polygon fill="#FFFFFF" points="81.3,146 81.3,275.3 177.6,275.3 223,229.9 223,136.5 		"/>
		<g>
			<g>
				<g id="svg_3_1_" transform="matrix(1.13487 0 0 1.13487 -21.1839 -1.8339)">
					<g id="svg_2_1_">
						<path id="svg_63_1_" fill="#FF0000" d="M188.8,172.3c0-5,2.9-8.3,2.9-14.9c0-6-2.6-10.8-2.1-14.2s4.7-5.2,4.7-5.2l-7.8-9
							c0,0-3.4,6.6-7.6,6.6c-3.5,0-6.3-3.7-10-4.2c-4.9-0.7-12,3.5-12,3.5s10.4-7.1,5.7-9.5c-3.8-1.9-9,9.1-9,9.1s2.4-12.7-1.9-12.7
							c-4.3,0-0.9,12.5-0.9,12.5s-5.4-10.8-9.2-8.7c-3.6,2,7.1,9.3,7.1,9.3s-9.3-4.2-13.6-4c-5.9,0.3-5,3.5-10.5,3.5
							c-3.6,0-5.1-7.1-5.1-7.1l-12.4,11.2c0,0,5.7,2.4,6.6,5.4c2,6.2-3,8.5-3,13.3c0,8,3.8,11.4,3.8,15.6c0,4.4-8.3,7.8-8.3,7.8
							s9.2,2.6,9.2,6.4c0,5.4-4.4,7.5-4.4,13.5c0,7.3,5,6.9,4.1,12.3c-0.5,3.3-7.6,8.8-7.6,8.8l11.1,11.1c0,0,3.6-5.4,7.4-5.4
							c3.8,0,6.7,3.3,10.4,3.3c4.3,0,6.7-3.3,9.9-3.3c4.3,0,6.9,6.9,6.9,6.9s1.8-7,8-7c1.9,0,4.7,3,8.8,3c4,0,6.2-3.4,9.7-3.4
							c3.1,0,6.3,5.9,6.3,5.9l10.5-10.1c0,0-6.9-2.8-6.9-6.4c0-4,2.4-5.7,2.4-13.5c0-9.2-2.7-10.3-2.7-16.7c0-2.9,6.5-5.3,6.5-5.3
							S188.8,179.6,188.8,172.3L188.8,172.3L188.8,172.3z"/>
						<path id="svg_62_1_" fill="#FFFFFF" d="M185.7,139.7l-67.7-1.6l1,84.5l66.6-1"/>
						<path id="svg_61_1_" fill="#FF7F00" d="M184.4,140.8l-65-1.5l1,81.6l64-1"/>
						<path id="svg_60_1_" fill="#007F3F" d="M184.8,176.8h-65.2l0.5,44.9l64.6-1"/>
						<path id="svg_58_1_" fill="#0000FF" d="M126.5,177.2c0,0-6.3,0.3-6.3,2.3s7.6,1,7.6,3s-5.7,1.8-5.6,3.5
							c0,3.4,13.1,1.4,13.1,1.4s-9.9-0.9-9.9-2.1c0-1.2,5.3-1.6,5.3-3.1c0-1.7-8.9-1.4-8.9-2.7C121.8,178.1,126.5,177.2,126.5,177.2
							L126.5,177.2z"/>
						<path id="svg_57_1_" fill="#0000FF" d="M178,178c0,0-3.3,0.1-3.3,1.2c0,1,4,0.5,4,1.6c0,1-2.9,0.9-2.9,1.8
							c0,1.8,6.8,0.7,6.8,0.7s-5.1-0.4-5.1-1.1c0-0.6,2.8-0.8,2.8-1.6c0-0.9-4.6-0.8-4.6-1.4C175.6,178.4,178,178,178,178z"/>
						<path id="svg_1_1_" fill="#800080" d="M119.4,177.1l65.3,0.1v-12.5c0-0.1-2.4,5.7-8,4.5c-5.7-1.2-3.5-11.3-10.2-6.9
							c-6.6,4.5-14.9,9-12.4,12.4c0.1-0.1-15.3,0.8-18.8-7c-3.5-7.8-5.4-0.6-6.5,1.7c-1.1,2.2-3.3,0-6.7,1.5
							C118.6,172.5,120.6,173.2,119.4,177.1L119.4,177.1L119.4,177.1L119.4,177.1L119.4,177.1L119.4,177.1L119.4,177.1z"/>
						<path id="svg_56_1_" fill="#7F3F00" d="M135.4,198.3c0,0,8.4-10.2,3-19.4c-3.8-6.6,0-16.2,0-16.2s-0.5-7.3,2-11
							c2.7-4.1,6-6.4,10.9-6.4c11.3,0,14.3,6.1,14.3,21.7c0,15.8,3.4,19.7,4.3,20.4L135.4,198.3L135.4,198.3z"/>
						<path id="svg_55_1_" fill="#F7E4B4" d="M174.3,219.3v-6.2c9.7-6-1.9-15.4-5.3-19.6c-6.4-7.9-13.6-10.5-13.6-18
							c0-6.8,5.7-11.7,2.1-20.6c-1.3-3.2-9.6-5.9-9.6-5.9l-5.1,2.8c-2,1.2-2.8,11.7,0.5,16.5c2.7,3.9,5.2,4.1,5.2,4.1v6.7
							c0,0-7.6,3.7-14.8,12.1c-6.4,7.5-9.2,24.2-9.5,29.2L174.3,219.3L174.3,219.3L174.3,219.3L174.3,219.3L174.3,219.3L174.3,219.3
							L174.3,219.3z"/>
						<path id="svg_54_1_" fill="#7F3F00" d="M183.2,220.7c-0.2-2.5-0.8-11.1-2.9-17.3c-2.6-7.8-11.9-17.5-12.6-17.7
							c-0.7-0.2-7.5,9.2-20.3,9.2c-5.6,0-9.4-6.2-7.3-11c-1.1,1-5.7,6.2-6.8,7.5c-5.9,6.7-9.6,18.6-9.6,30.2L183.2,220.7
							L183.2,220.7L183.2,220.7L183.2,220.7L183.2,220.7z"/>
						<path id="svg_53_1_" fill="none" stroke="#000000" stroke-width="2.5567" d="M134.6,192.3v18c0,0,6.1-1.6,12.8-0.3
							c0,0-3,2.2-5.2,5.4c-1.9,2.7-2.8,5.6-2.8,5.6"/>
						<path id="svg_52_1_" fill="none" stroke="#000000" stroke-width="2.5567" d="M169.3,191.2c0,0-1,2.7-2.2,9.7c-0.9,5-1,11-1,11
							"/>
						<path id="svg_51_1_" fill="none" stroke="#000000" stroke-width="2.4134" stroke-linecap="round" d="M145.8,166.8
							c0,0,1.1,1,2.2,1c1.5,0,2.3-1,2.3-1"/>
						<path id="svg_50_1_" fill="none" stroke="#000000" stroke-width="2.2849" stroke-linecap="round" d="M150.3,158.3
							c0.7-0.5,1.5-0.8,2.3-0.7s1.5,0.4,1.9,1"/>
						<path id="svg_49_1_" fill="none" stroke="#000000" stroke-width="2.4182" d="M175.2,216.6c0,0-3.6-2.9-8.8-3.6
							c-4.1-0.5-10.2-0.4-14.1,0.4c-4.7,1-6.2,2.5-6.2,2.5"/>
						<path id="svg_48_1_" fill="none" stroke="#000000" stroke-width="2.5567" d="M167.1,211.6c0,0,2.2-0.5,4.5-0.5
							c2.2,0,4.3,0.6,4.3,0.6"/>
						<path id="svg_47_1_" fill="#F2DAA9" d="M156.5,214.2c0,0-0.9-3.2-4.7-3.6c-3.9-0.4-10.6,6.3-8,8
							C148.3,221.5,156.5,214.2,156.5,214.2z"/>
						<path id="svg_46_1_" fill="none" stroke="#000000" stroke-width="3.29" stroke-linecap="round" d="M151.7,215.4l-5.1,3.1"/>
						<path id="svg_45_1_" fill="none" stroke="#000000" stroke-width="3" d="M148.4,213.4l-4.7,3.5"/>
						<path id="svg_44_1_" fill="none" stroke="#000000" stroke-width="3.29" stroke-linecap="round" d="M150.6,214.1l-6,4.3"/>
						<path id="svg_43_1_" fill="#F4E6B2" d="M145.9,212.5c0,0,0.9-2.5,5.4-2.6c3.9-0.1,11.1,6.5,8.5,8.2
							C155.3,221.2,145.9,212.5,145.9,212.5z"/>
						<path id="svg_42_1_" fill="none" stroke="#000000" stroke-width="3.3505" stroke-linecap="round" d="M155.3,213.1l4.7,3.5"/>
						<path id="svg_41_1_" fill="none" stroke="#000000" stroke-width="3.3505" stroke-linecap="round" d="M150.8,214l6,4.3"/>
						<path id="svg_40_1_" fill="none" stroke="#8A4D4A" stroke-width="3.3505" stroke-linecap="round" d="M153.4,218.2l1.8,2.5"/>
						<path id="svg_39_1_" fill="none" stroke="#000000" stroke-width="2.2849" stroke-linecap="round" d="M142.6,158.4
							c0,0,1.7-0.9,3.3-0.5c2,0.6,1.7,2.2,1.7,3.2c0,1.7-1.3,3.5-1.3,3.5s0.5,0.2,1.5,0.2s1.5-0.1,1.5-0.1"/>
						<path id="svg_38_1_" fill="none" stroke="#000000" stroke-width="2.5567" stroke-linecap="round" d="M145.2,158.7v1.2"/>
						<path id="svg_37_1_" fill="none" stroke="#000000" stroke-width="2.5567" stroke-linecap="round" d="M152.5,158.7v1.2"/>
						<path id="svg_35_1_" fill="none" stroke="#000000" stroke-width="2.5567" stroke-linecap="round" d="M169.7,187.4
							c0,0-4.7,0.5-11.4,5.7c-7.4,5.8-11.4,14.2-11.4,14.2"/>
						<path id="svg_34_1_" fill="none" stroke="#000000" stroke-width="3.3505" stroke-linecap="round" d="M153,213.8l6,4.3"/>
					</g>
				</g>
			</g>
		</g>
		<path fill="#45455E" d="M240.6,23.5c0-5.9-4.8-10.7-10.7-10.7H71.5c-5.9,0-10.7,4.8-10.7,10.7v30.2h179.8V23.5z"/>
		<path fill="#272736" d="M262.3,52H41.2c-16.6,0-30.1,15.4-30.1,34.5v85.7c0,19,13.5,34.5,30.1,34.5h9.9v-30.2
			c0-11.8,9.6-21.4,21.4-21.4H231c11.8,0,21.4,9.6,21.4,21.4v30.2h9.9c16.6,0,30.1-15.4,30.1-34.5V86.5
			C292.4,67.4,278.9,52,262.3,52z"/>
		<path fill="#E74000" d="M219.9,94.7c-6.6,0-11.9-5.3-11.9-11.9s5.3-11.9,11.9-11.9c6.6,0,11.9,5.3,11.9,11.9
			C231.8,89.3,226.4,94.7,219.9,94.7z"/>
		<path fill="#22B900" d="M260.8,94.7c-6.6,0-11.9-5.3-11.9-11.9s5.3-11.9,11.9-11.9c6.6,0,11.9,5.3,11.9,11.9
			C272.7,89.3,267.4,94.7,260.8,94.7z"/>
		<path d="M214.8,228.6H177c-0.5,0-1,0.2-1.4,0.6c-0.4,0.4-0.6,0.8-0.6,1.4V269H88.6V153.6H71.2v124.1c0,2.3,0.9,4.6,2.6,6.2
			c1.6,1.6,3.9,2.6,6.2,2.6h98.8c2.3,0,4.5-0.9,6.2-2.5l44.8-44.8c1.7-1.7,2.6-3.8,2.6-6.2v-79.3H215L214.8,228.6L214.8,228.6z"/>
	</g>
</g>
</svg>
